<?xml version="1.0" encoding="utf-8" ?>
<svg xmlns="http://www.w3.org/2000/svg" xmlns:xlink="http://www.w3.org/1999/xlink" width="512" height="512">
	<path fill="#FF7A02" d="M387.536 155.492L360.154 155.579C357.58 155.566 354.431 147.626 352.575 144.868C340.888 127.505 320.164 115.62 299.132 115.593L248.737 115.565L248.982 81.7956C251.673 81.3234 254.809 81.5627 257.56 81.5376L286.274 81.5339C310.316 81.5424 323.597 82.255 346.31 94.3075C371.072 107.447 387.856 128.349 396.005 155.013C395.486 155.315 394.584 155.272 393.969 155.306L387.536 155.492Z"/>
	<path fill="#FF7A02" d="M194.629 312.575L187.377 307.663C146.264 283.318 90.9044 303.815 76.9126 349.515L75.1479 356.192C73.4636 364.012 75.2544 368.461 66.0127 369.211C49.2542 370.572 36.4801 359.101 32.5 343.423C30.5181 335.617 31.2453 327.554 31.2417 319.562L31.2626 256.64C31.2691 250.098 31.0056 243.444 31.6872 236.933C36.6738 189.31 75.59 150.101 123.902 147.107L281.446 147.106C291.297 147.136 300.549 150.714 302.07 162.056C302.357 164.195 302.065 166.606 302.022 168.765L301.942 369.567L224.019 369.691L223.625 364.732C221.304 344.377 210.67 325.246 194.629 312.575ZM123.974 199.814C120.33 200.48 117.246 201.998 115.039 205.088C108.276 214.559 117.239 222.202 123.205 228.101L164.702 271.994C169.84 277.643 175.653 281.794 182.307 275.844C188.934 269.919 194.805 262.915 200.977 256.506L226.047 230.931L232.143 224.518C237.756 218.439 242.406 210.233 234.943 203.316C225.849 194.887 216.953 201.723 210.405 209.051L178.378 242.427C177.534 243.212 176.416 244.369 175.35 244.821L139.627 208.234C135.38 203.611 130.933 198.84 123.974 199.814Z"/>
	<path fill="#FF7A02" d="M446.875 265.882L326.56 265.817L326.708 179.798L400.649 179.974C402.434 181.159 435.499 244.441 439.261 251.371L446.875 265.882Z"/>
	<path fill="#FF7A02" d="M449.06 393.558C435.616 429.427 388.95 439.733 364.075 407.858C355.477 396.84 352.611 383.277 354.326 369.556L326.549 369.595L326.636 289.997C329.066 290.115 331.445 290.238 333.753 290.241L458.285 290.267C460.964 290.268 464.218 289.917 466.794 290.641L467.125 290.738C479.115 293.991 482.439 304.088 482.456 314.976L482.426 369.545C476.546 370.378 457.577 370.028 451.803 369.503L451.459 369.47C451.634 378.101 451.711 385.274 449.06 393.558Z"/>
	<path fill="#FF7A02" d="M152.311 426.602L152.005 426.635C107.245 430.927 80.8878 374.602 108.872 340.704C117.706 330.004 130.47 323.385 144.264 322.102L144.649 322.059C172.5 319.951 196.624 342.223 199.215 369.628C201.897 397.991 180.519 423.735 152.311 426.602Z"/>
</svg>
