<svg id="Layer_1" data-name="Layer 1" xmlns="http://www.w3.org/2000/svg" viewBox="0 0 768 768"><defs><style>.cls-1{fill:#427aa1;}</style></defs><path class="cls-1" d="M655.51,635.53a56.89,56.89,0,0,0-7.87-15.95,57.54,57.54,0,0,0-11.4-11.87,69.11,69.11,0,0,0-13.55-8.16,71.83,71.83,0,0,0-27.94-6.48H502.84a22.13,22.13,0,0,1-24-20.08,21.19,21.19,0,0,1,0-3.82,24.16,24.16,0,0,1,6.35-17.47,23.24,23.24,0,0,1,17.67-6.65H623.32A15.06,15.06,0,0,0,638.38,530v-8.25a15.06,15.06,0,0,0-15.06-15.06H502.84A72.56,72.56,0,0,0,482.06,510a62.36,62.36,0,0,0-20.75,10.77,60,60,0,0,0-15.95,19.32,70,70,0,0,0,0,58.28,59,59,0,0,0,15.95,19.32,62.8,62.8,0,0,0,20.75,10.68,74.35,74.35,0,0,0,20.78,3.33h91.61a27.43,27.43,0,0,1,10,1.77,21,21,0,0,1,7.66,5,22.11,22.11,0,0,1,4.79,7.66,26.9,26.9,0,0,1,1.69,9.72,22.15,22.15,0,0,1-24.16,23.86H363.26a15.1,15.1,0,0,1-15.1-15.11V521.74a15.07,15.07,0,0,0-15.07-15.06H173.19a72.88,72.88,0,0,0-21,3.32,63.11,63.11,0,0,0-20.75,10.77A59.25,59.25,0,0,0,116,540.09a69.94,69.94,0,0,0,0,58.28,58.49,58.49,0,0,0,15.9,19.32,63.57,63.57,0,0,0,20.75,10.68,74,74,0,0,0,21,3.33h91.27a27,27,0,0,1,10,1.77,20.54,20.54,0,0,1,7.65,5,22.15,22.15,0,0,1,4.84,7.66,26.9,26.9,0,0,1,1.69,9.72,22.19,22.19,0,0,1-20.33,23.89,22.74,22.74,0,0,1-3.87,0H126.43a15.06,15.06,0,0,0-15.1,15v8.21a15.11,15.11,0,0,0,15.1,15.11H264.92a70,70,0,0,0,41.66-14c.72-.54,1.43-1.09,2.1-1.68a17.57,17.57,0,0,0,1.18,4.21,18.68,18.68,0,0,0,10.57,10.18,21.61,21.61,0,0,0,7.95,1.48H594.45a70.64,70.64,0,0,0,13.68-1.48,69.06,69.06,0,0,0,14.31-4.54,72.24,72.24,0,0,0,13.63-8,50.39,50.39,0,0,0,11.49-11.78,60.53,60.53,0,0,0,7.91-16,71.48,71.48,0,0,0,0-40.73ZM308.35,609.06l-1.6-1.35a69.4,69.4,0,0,0-13.59-8.16,71.67,71.67,0,0,0-14.31-4.8,73.62,73.62,0,0,0-13.63-1.68H173.35a22.13,22.13,0,0,1-24-20.08,21.19,21.19,0,0,1,0-3.82,24.21,24.21,0,0,1,6.35-17.47,23.13,23.13,0,0,1,17.67-6.65H293.28a15.07,15.07,0,0,1,15.07,15.07h0Z"/><path class="cls-1" d="M538.62,152l-32.95.13c-3.12,0-6.85-9.63-9.14-12.87-14.07-20.93-39-35.12-64.22-35.24H371.7l.24-40.65c3.25-.6,7-.24,10.35-.36H416.8c28.86,0,44.86.84,72.16,15.4,29.82,15.75,49.9,40.88,59.77,73a5.38,5.38,0,0,1-2.41.36Z"/><path class="cls-1" d="M306.64,341l-8.78-5.89c-49.42-29.22-116-4.57-132.88,50.39l-2.17,8.06c-2,9.38.12,14.79-10.94,15.63-20.2,1.68-35.48-12.15-40.29-31-2.4-9.38-1.56-19.12-1.56-28.74V273.74c0-7.82-.36-15.88.48-23.69,6-57.25,52.79-104.39,110.88-108H410.79c11.9,0,23,4.33,24.77,17.92.36,2.53,0,5.53,0,8.06l-.12,241.48-93.68.12-.48-6A92.56,92.56,0,0,0,306.64,341Zm-84.9-135.65c-4.33.84-8.06,2.65-10.7,6.37-8.18,11.43,2.64,20.57,9.86,27.66l49.91,52.8c6.13,6.73,13.22,11.78,21.16,4.69s15-15.52,22.49-23.21l30.19-30.79,7.33-7.7c6.74-7.33,12.39-17.19,3.37-25.49-11-10.1-21.65-1.92-29.47,6.85L287.4,256.66a16.38,16.38,0,0,1-3.61,2.89l-42.93-44C235.45,209.88,230,204.11,221.74,205.31Z"/><path class="cls-1" d="M610.06,284.8l-144.67-.12.12-103.42,88.87.24c2.16,1.44,42,77.57,46.42,85.86Z"/><path class="cls-1" d="M612.7,438.37c-16.11,43.18-72.27,55.56-102.22,17.2-10.34-13.23-13.83-29.58-11.66-46.06H465.39l.12-95.73c2.88.12,5.77.24,8.53.24H623.77c3.24,0,7.09-.48,10.22.49l.36.12c14.43,4,18.4,16.11,18.4,29.1v65.66c-7.1,1-29.82.6-36.8,0h-.36C615.71,419.73,615.83,428.39,612.7,438.37Z"/><path class="cls-1" d="M255.77,478.06h-.36c-53.87,5.17-85.5-62.54-51.83-103.3a62.59,62.59,0,0,1,42.57-22.37h.48c33.56-2.53,62.54,24.29,65.67,57.24C315.42,443.66,289.69,474.57,255.77,478.06Z"/></svg>