<svg id="Layer_1" data-name="Layer 1" xmlns="http://www.w3.org/2000/svg" viewBox="0 0 130.45 50.23"><path d="M162.22,54.92a13.54,13.54,0,0,0-1.87-3.79,13.71,13.71,0,0,0-2.71-2.82,16.41,16.41,0,0,0-3.22-1.94,17.21,17.21,0,0,0-3.4-1.14,17.46,17.46,0,0,0-3.24-.4H125.94a5.26,5.26,0,0,1-5.71-5.68A5.75,5.75,0,0,1,121.74,35a5.52,5.52,0,0,1,4.2-1.58h28.63a3.58,3.58,0,0,0,3.58-3.59V27.88a3.58,3.58,0,0,0-3.58-3.58H125.94a17.29,17.29,0,0,0-4.94.79,14.8,14.8,0,0,0-4.93,2.56,14.23,14.23,0,0,0-3.79,4.59,14.44,14.44,0,0,0-1.51,6.91,14.56,14.56,0,0,0,1.51,6.94,14,14,0,0,0,3.79,4.59A14.93,14.93,0,0,0,121,53.22a17.65,17.65,0,0,0,4.94.79h21.77a6.5,6.5,0,0,1,2.38.42,5,5,0,0,1,1.82,1.19,5.25,5.25,0,0,1,1.14,1.82,6.37,6.37,0,0,1,.4,2.31,5.27,5.27,0,0,1-5.74,5.67H92.77a3.59,3.59,0,0,1-3.59-3.59V27.88A3.58,3.58,0,0,0,85.6,24.3h-38a17.3,17.3,0,0,0-5,.79,15,15,0,0,0-4.93,2.56A14.07,14.07,0,0,0,34,32.24a14.44,14.44,0,0,0-1.51,6.91A14.56,14.56,0,0,0,34,46.09a13.87,13.87,0,0,0,3.78,4.59,15.13,15.13,0,0,0,4.93,2.54,17.66,17.66,0,0,0,5,.79H69.4a6.46,6.46,0,0,1,2.38.42,4.88,4.88,0,0,1,1.82,1.19,5.28,5.28,0,0,1,1.15,1.82,6.37,6.37,0,0,1,.4,2.31,5.27,5.27,0,0,1-5.75,5.67H36.49A3.58,3.58,0,0,0,32.9,69v1.94a3.59,3.59,0,0,0,3.59,3.59H69.4a17.09,17.09,0,0,0,6.66-1.43,17.25,17.25,0,0,0,3.24-1.9c.17-.13.34-.26.5-.4a4.06,4.06,0,0,0,.28,1,4.44,4.44,0,0,0,2.51,2.42,5.08,5.08,0,0,0,1.89.35h63.23a16.68,16.68,0,0,0,3.25-.35,16.37,16.37,0,0,0,3.4-1.08,17.25,17.25,0,0,0,3.24-1.9,11.91,11.91,0,0,0,2.73-2.8,14.34,14.34,0,0,0,1.88-3.8,17,17,0,0,0,0-9.68Zm-82.5-6.29-.38-.32a16.48,16.48,0,0,0-3.23-1.94,17,17,0,0,0-3.4-1.14,17.46,17.46,0,0,0-3.24-.4H47.64a5.26,5.26,0,0,1-5.71-5.68A5.75,5.75,0,0,1,43.44,35a5.49,5.49,0,0,1,4.2-1.58h28.5A3.58,3.58,0,0,1,79.72,37Z" transform="translate(-32.47 -24.3)"/></svg>