<?xml version="1.0" encoding="utf-8"?>
<!-- Generator: Adobe Illustrator 24.1.1, SVG Export Plug-In . SVG Version: 6.00 Build 0)  -->
<svg version="1.1" id="Layer_1" xmlns="http://www.w3.org/2000/svg" xmlns:xlink="http://www.w3.org/1999/xlink" x="0px" y="0px"
	 viewBox="0 0 142.7 55.9" style="enable-background:new 0 0 142.7 55.9;" xml:space="preserve">
<path d="M134.1,33.5c-0.4-1.4-1.1-2.6-1.9-3.8c-0.8-1.1-1.7-2-2.7-2.8c-1-0.8-2.1-1.4-3.2-1.9c-1.1-0.5-2.2-0.9-3.4-1.1
	c-1.1-0.2-2.1-0.4-3.2-0.4H97.8c-2.9,0.3-5.4-1.9-5.7-4.8c0-0.3,0-0.6,0-0.9c-0.1-1.5,0.5-3,1.5-4.1c1.1-1.1,2.6-1.7,4.2-1.6h28.6
	c2,0,3.6-1.6,3.6-3.6c0,0,0,0,0,0V6.4c0-2-1.6-3.6-3.6-3.6l0,0H97.8c-1.7,0-3.3,0.3-4.9,0.8c-1.8,0.5-3.5,1.4-4.9,2.6
	c-1.6,1.2-2.9,2.8-3.8,4.6c-1.1,2.1-1.6,4.5-1.5,6.9c-0.1,2.4,0.4,4.8,1.5,6.9c0.9,1.8,2.2,3.3,3.8,4.6c1.5,1.1,3.1,2,4.9,2.5
	c1.6,0.5,3.3,0.8,4.9,0.8h21.8c0.8,0,1.6,0.1,2.4,0.4c0.7,0.3,1.3,0.7,1.8,1.2c0.5,0.5,0.9,1.1,1.1,1.8c0.3,0.7,0.4,1.5,0.4,2.3
	c0.2,2.9-1.9,5.4-4.8,5.7c-0.3,0-0.6,0-0.9,0H64.6c-2,0-3.6-1.6-3.6-3.6V6.4c0-2-1.6-3.6-3.6-3.6l0,0h-38c-1.7,0-3.4,0.3-5,0.8
	C12.7,4.2,11,5,9.5,6.2C8,7.4,6.8,9,5.9,10.8c-1.1,2.1-1.6,4.5-1.5,6.9c-0.1,2.4,0.4,4.8,1.5,6.9c0.9,1.8,2.2,3.4,3.8,4.6
	c1.5,1.1,3.1,2,4.9,2.5c1.6,0.5,3.3,0.8,5,0.8h21.7c0.8,0,1.6,0.1,2.4,0.4c0.7,0.3,1.3,0.7,1.8,1.2c0.5,0.5,0.9,1.1,1.2,1.8
	c0.3,0.7,0.4,1.5,0.4,2.3c0.2,2.9-1.9,5.4-4.8,5.7c-0.3,0-0.6,0-0.9,0H8.4c-2,0-3.6,1.6-3.6,3.6c0,0,0,0,0,0v1.9
	c0,2,1.6,3.6,3.6,3.6h32.9c2.3,0,4.6-0.5,6.7-1.4c1.1-0.5,2.2-1.2,3.2-1.9c0.2-0.1,0.3-0.3,0.5-0.4c0.1,0.3,0.1,0.7,0.3,1
	c0.5,1.1,1.4,2,2.5,2.4c0.6,0.2,1.2,0.4,1.9,0.3h63.2c1.1,0,2.2-0.1,3.3-0.3c1.2-0.2,2.3-0.6,3.4-1.1c1.1-0.5,2.2-1.2,3.2-1.9
	c1.1-0.8,2-1.7,2.7-2.8c0.8-1.2,1.4-2.4,1.9-3.8C135,40,135,36.7,134.1,33.5L134.1,33.5z M51.6,27.2l-0.4-0.3
	c-1-0.8-2.1-1.4-3.2-1.9c-1.1-0.5-2.2-0.9-3.4-1.1c-1.1-0.2-2.1-0.4-3.2-0.4H19.5c-2.9,0.3-5.4-1.9-5.7-4.8c0-0.3,0-0.6,0-0.9
	c-0.1-1.5,0.5-3,1.5-4.1c1.1-1.1,2.6-1.7,4.2-1.6H48c2,0,3.6,1.6,3.6,3.6v0V27.2z"/>
</svg>
