<?xml version="1.0" encoding="utf-8"?>
<!-- Generator: Adobe Illustrator 24.1.1, SVG Export Plug-In . SVG Version: 6.00 Build 0)  -->
<svg version="1.1" id="Layer_1" xmlns="http://www.w3.org/2000/svg" xmlns:xlink="http://www.w3.org/1999/xlink" x="0px" y="0px"
	 viewBox="0 0 512 512" style="enable-background:new 0 0 512 512;" xml:space="preserve">
<style type="text/css">
	.st0{fill:#427AA1;}
</style>
<path class="st0" d="M387.5,155.5l-27.4,0.1c-2.6,0-5.7-8-7.6-10.7c-11.7-17.4-32.4-29.2-53.4-29.3l-50.4,0l0.2-33.8
	c2.7-0.5,5.8-0.2,8.6-0.3l28.7,0c24,0,37.3,0.7,60,12.8c24.8,13.1,41.5,34,49.7,60.7c-0.5,0.3-1.4,0.3-2,0.3L387.5,155.5z"/>
<path class="st0" d="M194.6,312.6l-7.3-4.9c-41.1-24.3-96.5-3.8-110.5,41.9l-1.8,6.7c-1.7,7.8,0.1,12.3-9.1,13
	c-16.8,1.4-29.5-10.1-33.5-25.8c-2-7.8-1.3-15.9-1.3-23.9l0-62.9c0-6.5-0.3-13.2,0.4-19.7c5-47.6,43.9-86.8,92.2-89.8l157.5,0
	c9.9,0,19.1,3.6,20.6,14.9c0.3,2.1,0,4.6,0,6.7l-0.1,200.8l-77.9,0.1l-0.4-5C221.3,344.4,210.7,325.2,194.6,312.6z M124,199.8
	c-3.6,0.7-6.7,2.2-8.9,5.3c-6.8,9.5,2.2,17.1,8.2,23l41.5,43.9c5.1,5.6,11,9.8,17.6,3.9c6.6-5.9,12.5-12.9,18.7-19.3l25.1-25.6
	l6.1-6.4c5.6-6.1,10.3-14.3,2.8-21.2c-9.1-8.4-18-1.6-24.5,5.7l-32,33.4c-0.8,0.8-2,1.9-3,2.4l-35.7-36.6
	C135.4,203.6,130.9,198.8,124,199.8z"/>
<path class="st0" d="M446.9,265.9l-120.3-0.1l0.1-86l73.9,0.2c1.8,1.2,34.9,64.5,38.6,71.4L446.9,265.9z"/>
<path class="st0" d="M449.1,393.6c-13.4,35.9-60.1,46.2-85,14.3c-8.6-11-11.5-24.6-9.7-38.3l-27.8,0l0.1-79.6
	c2.4,0.1,4.8,0.2,7.1,0.2l124.5,0c2.7,0,5.9-0.4,8.5,0.4l0.3,0.1c12,3.3,15.3,13.4,15.3,24.2l0,54.6c-5.9,0.8-24.8,0.5-30.6,0
	l-0.3,0C451.6,378.1,451.7,385.3,449.1,393.6z"/>
<path class="st0" d="M152.3,426.6l-0.3,0c-44.8,4.3-71.1-52-43.1-85.9c8.8-10.7,21.6-17.3,35.4-18.6l0.4,0
	c27.9-2.1,52,20.2,54.6,47.6C201.9,398,180.5,423.7,152.3,426.6z"/>
</svg>
