<?xml version="1.0" encoding="utf-8"?>
<!-- Generator: Adobe Illustrator 24.1.1, SVG Export Plug-In . SVG Version: 6.00 Build 0)  -->
<svg version="1.1" id="Layer_1" xmlns="http://www.w3.org/2000/svg" xmlns:xlink="http://www.w3.org/1999/xlink" x="0px" y="0px"
	 viewBox="0 0 768 768" style="enable-background:new 0 0 768 768;" xml:space="preserve">
<style type="text/css">
	.st0{fill:#427AA1;}
</style>
<path d="M-527.2,335.7c-0.4-1.4-1.1-2.6-1.9-3.8c-0.8-1.1-1.7-2-2.7-2.8c-1-0.8-2.1-1.4-3.2-1.9c-1.1-0.5-2.2-0.9-3.4-1.1
	c-1.1-0.2-2.1-0.4-3.2-0.4h-21.8c-2.9,0.3-5.4-1.9-5.7-4.8c0-0.3,0-0.6,0-0.9c-0.1-1.5,0.5-3,1.5-4.1c1.1-1.1,2.6-1.7,4.2-1.6h28.6
	c2,0,3.6-1.6,3.6-3.6c0,0,0,0,0,0v-1.9c0-2-1.6-3.6-3.6-3.6l0,0h-28.6c-1.7,0-3.3,0.3-4.9,0.8c-1.8,0.5-3.5,1.4-4.9,2.6
	c-1.6,1.2-2.9,2.8-3.8,4.6c-1.1,2.1-1.6,4.5-1.5,6.9c-0.1,2.4,0.4,4.8,1.5,6.9c0.9,1.8,2.2,3.3,3.8,4.6c1.5,1.1,3.1,2,4.9,2.5
	c1.6,0.5,3.3,0.8,4.9,0.8h21.8c0.8,0,1.6,0.1,2.4,0.4c0.7,0.3,1.3,0.7,1.8,1.2c0.5,0.5,0.9,1.1,1.1,1.8c0.3,0.7,0.4,1.5,0.4,2.3
	c0.2,2.9-1.9,5.4-4.8,5.7c-0.3,0-0.6,0-0.9,0h-54.9c-2,0-3.6-1.6-3.6-3.6v-33.9c0-2-1.6-3.6-3.6-3.6l0,0h-38c-1.7,0-3.4,0.3-5,0.8
	c-1.8,0.5-3.5,1.4-4.9,2.6c-1.5,1.3-2.8,2.8-3.7,4.6c-1.1,2.1-1.6,4.5-1.5,6.9c-0.1,2.4,0.4,4.8,1.5,6.9c0.9,1.8,2.2,3.4,3.8,4.6
	c1.5,1.1,3.1,2,4.9,2.5c1.6,0.5,3.3,0.8,5,0.8h21.7c0.8,0,1.6,0.1,2.4,0.4c0.7,0.3,1.3,0.7,1.8,1.2c0.5,0.5,0.9,1.1,1.1,1.8
	c0.3,0.7,0.4,1.5,0.4,2.3c0.2,2.9-1.9,5.4-4.8,5.7c-0.3,0-0.6,0-0.9,0H-653c-2,0-3.6,1.6-3.6,3.6c0,0,0,0,0,0v1.9
	c0,2,1.6,3.6,3.6,3.6h32.9c2.3,0,4.6-0.5,6.7-1.4c1.1-0.5,2.2-1.2,3.2-1.9c0.2-0.1,0.3-0.3,0.5-0.4c0.1,0.3,0.1,0.7,0.3,1
	c0.5,1.1,1.4,2,2.5,2.4c0.6,0.2,1.2,0.4,1.9,0.3h63.2c1.1,0,2.2-0.1,3.3-0.3c1.2-0.2,2.3-0.6,3.4-1.1c1.1-0.5,2.2-1.2,3.2-1.9
	c1.1-0.8,2-1.7,2.7-2.8c0.8-1.2,1.4-2.4,1.9-3.8C-526.3,342.3-526.3,338.9-527.2,335.7L-527.2,335.7z M-609.7,329.4l-0.4-0.3
	c-1-0.8-2.1-1.4-3.2-1.9c-1.1-0.5-2.2-0.9-3.4-1.1c-1.1-0.2-2.1-0.4-3.2-0.4h-21.8c-2.9,0.3-5.4-1.9-5.7-4.8c0-0.3,0-0.6,0-0.9
	c-0.1-1.5,0.5-3,1.5-4.1c1.1-1.1,2.6-1.7,4.2-1.6h28.5c2,0,3.6,1.6,3.6,3.6l0,0V329.4z"/>
<path class="st0" d="M655.5,635.5c-1.8-5.7-4.4-11.1-7.9-15.9c-3.2-4.5-7.1-8.5-11.4-11.9c-4.2-3.2-8.7-6-13.5-8.2
	c-4.6-2.1-9.4-3.7-14.3-4.8c-4.5-1-9-1.5-13.6-1.7h-91.9c-12.2,1.1-22.9-7.9-24-20.1c-0.1-1.3-0.1-2.6,0-3.8
	c-0.3-6.4,2-12.7,6.4-17.5c4.7-4.6,11.1-7,17.7-6.6h120.5c8.3,0,15.1-6.7,15.1-15.1c0,0,0,0,0,0v-8.2c0-8.3-6.7-15.1-15.1-15.1l0,0
	H502.8c-7.1,0.1-14.1,1.2-20.8,3.3c-7.5,2.2-14.6,5.9-20.7,10.8c-6.6,5.2-12.1,11.8-15.9,19.3c-4.5,9-6.7,19-6.4,29.1
	c-0.3,10.1,1.9,20.1,6.4,29.2c3.9,7.5,9.3,14.1,15.9,19.3c6.2,4.8,13.2,8.5,20.7,10.7c6.7,2.1,13.7,3.2,20.8,3.3h91.6
	c3.4,0,6.8,0.6,10,1.8c2.9,1.1,5.5,2.8,7.7,5c2.1,2.2,3.7,4.8,4.8,7.7c1.2,3.1,1.7,6.4,1.7,9.7c1,12.2-8.1,22.9-20.3,23.9
	c-1.3,0.1-2.6,0.1-3.8,0H363.3c-8.3,0-15.1-6.8-15.1-15.1V521.7c0-8.3-6.7-15.1-15.1-15.1l0,0H173.2c-7.1,0.1-14.2,1.2-21,3.3
	c-7.5,2.3-14.6,5.9-20.7,10.8c-6.5,5.3-11.7,11.9-15.4,19.3c-4.5,9-6.7,19-6.4,29.1c-0.3,10.1,1.9,20.1,6.4,29.2
	c3.8,7.5,9.3,14.1,15.9,19.3c6.2,4.8,13.2,8.4,20.7,10.7c6.8,2.1,13.9,3.2,21,3.3h91.3c3.4,0,6.8,0.6,10,1.8c2.9,1.1,5.5,2.8,7.7,5
	c2.1,2.2,3.8,4.8,4.8,7.7c1.2,3.1,1.7,6.4,1.7,9.7c1,12.2-8.1,22.9-20.3,23.9c-1.3,0.1-2.6,0.1-3.9,0H126.4c-8.3,0-15.1,6.7-15.1,15
	c0,0,0,0,0,0v8.2c0,8.3,6.8,15.1,15.1,15.1h138.5c9.7-0.1,19.2-2.2,28-6c4.8-2.2,9.4-4.8,13.6-8c0.7-0.5,1.4-1.1,2.1-1.7
	c0.2,1.4,0.6,2.9,1.2,4.2c2,4.7,5.8,8.4,10.6,10.2c2.5,1,5.2,1.5,8,1.5h266.1c4.6,0,9.2-0.5,13.7-1.5c4.9-1,9.7-2.5,14.3-4.5
	c4.8-2.2,9.4-4.8,13.6-8c4.5-3.3,8.3-7.2,11.5-11.8c3.4-4.9,6.1-10.3,7.9-16c3.9-13.3,3.9-27.4,0-40.7L655.5,635.5z M308.3,609.1
	l-1.6-1.3c-4.2-3.2-8.8-6-13.6-8.2c-4.6-2.1-9.4-3.7-14.3-4.8c-4.5-1-9-1.5-13.6-1.7h-91.9c-12.2,1.1-22.9-7.9-24-20.1
	c-0.1-1.3-0.1-2.6,0-3.8c-0.3-6.4,2-12.7,6.4-17.5c4.7-4.6,11.1-7.1,17.7-6.6h119.9c8.3,0,15.1,6.7,15.1,15.1l0,0V609.1z"/>
<g>
	<path class="st0" d="M538.6,152l-33,0.1c-3.1,0-6.9-9.6-9.1-12.9c-14.1-20.9-39-35.1-64.2-35.2h-60.6l0.2-40.6
		c3.2-0.6,7-0.2,10.3-0.4h34.5c28.9,0,44.9,0.8,72.2,15.4c29.8,15.8,49.9,40.9,59.8,73c-0.6,0.4-1.7,0.4-2.4,0.4L538.6,152z"/>
	<path class="st0" d="M306.6,341l-8.8-5.9c-49.4-29.2-116.1-4.6-132.9,50.4l-2.2,8.1c-2,9.4,0.1,14.8-10.9,15.6
		c-20.2,1.7-35.5-12.1-40.3-31c-2.4-9.4-1.6-19.1-1.6-28.7v-75.6c0-7.8-0.4-15.9,0.5-23.7c6-57.2,52.8-104.4,110.9-108h189.4
		c11.9,0,23,4.3,24.8,17.9c0.4,2.5,0,5.5,0,8.1l-0.1,241.5l-93.7,0.1l-0.5-6C338.8,379.2,326,356.1,306.6,341z M221.7,205.3
		c-4.3,0.8-8.1,2.6-10.7,6.4c-8.2,11.4,2.6,20.6,9.9,27.7l49.9,52.8c6.1,6.7,13.2,11.8,21.2,4.7c7.9-7.1,15-15.5,22.5-23.2
		l30.2-30.8l7.3-7.7c6.7-7.3,12.4-17.2,3.4-25.5c-10.9-10.1-21.6-1.9-29.5,6.9l-38.5,40.2c-1,1-2.4,2.3-3.6,2.9l-42.9-44
		C235.4,209.9,230,204.1,221.7,205.3z"/>
	<path class="st0" d="M610.1,284.8l-144.7-0.1l0.1-103.4l88.9,0.2c2.2,1.4,42,77.6,46.4,85.9L610.1,284.8z"/>
	<path class="st0" d="M612.7,438.4c-16.1,43.2-72.3,55.6-102.2,17.2c-10.3-13.2-13.8-29.6-11.7-46.1h-33.4l0.1-95.7
		c2.9,0.1,5.8,0.2,8.5,0.2h149.7c3.2,0,7.1-0.5,10.2,0.5l0.4,0.1c14.4,4,18.4,16.1,18.4,29.1v65.7c-7.1,1-29.8,0.6-36.8,0h-0.4
		C615.7,419.7,615.8,428.4,612.7,438.4z"/>
	<path class="st0" d="M255.8,478.1h-0.4c-53.9,5.2-85.5-62.5-51.8-103.3c10.6-12.9,26-20.8,42.6-22.4h0.5
		c33.6-2.5,62.5,24.3,65.7,57.2C315.4,443.7,289.7,474.6,255.8,478.1z"/>
</g>
</svg>
