<svg id="Layer_1" data-name="Layer 1" xmlns="http://www.w3.org/2000/svg" viewBox="0 0 232.62 90.14"><defs><style>.cls-1{fill:#427aa1;}</style></defs><path class="cls-1" d="M222.16,53.36a11.69,11.69,0,0,0-1.63-3.3,12,12,0,0,0-2.36-2.46,14.69,14.69,0,0,0-2.8-1.69,15,15,0,0,0-5.79-1.34h-19a4.57,4.57,0,0,1-5-5A5,5,0,0,1,186.9,36a4.82,4.82,0,0,1,3.66-1.38h24.93a3.12,3.12,0,0,0,3.13-3.12V29.81a3.13,3.13,0,0,0-3.13-3.12H190.56a15.12,15.12,0,0,0-4.3.69,12.9,12.9,0,0,0-4.3,2.23,12.41,12.41,0,0,0-3.3,4,12.6,12.6,0,0,0-1.31,6,12.7,12.7,0,0,0,1.31,6.05,12.34,12.34,0,0,0,3.3,4,13.22,13.22,0,0,0,4.3,2.21,15.48,15.48,0,0,0,4.3.69h19a5.79,5.79,0,0,1,2.08.36,4.63,4.63,0,0,1,1.58,1,4.37,4.37,0,0,1,1,1.58,5.46,5.46,0,0,1,.35,2,4.58,4.58,0,0,1-5,4.93H161.66a3.12,3.12,0,0,1-3.12-3.12V29.81a3.12,3.12,0,0,0-3.12-3.12H122.36a15.13,15.13,0,0,0-4.31.69,13,13,0,0,0-4.29,2.23,12.16,12.16,0,0,0-3.3,4,12.6,12.6,0,0,0-1.31,6,12.7,12.7,0,0,0,1.31,6.05,12.09,12.09,0,0,0,3.3,4,13.27,13.27,0,0,0,4.29,2.21,15.49,15.49,0,0,0,4.31.69h19a5.75,5.75,0,0,1,2.08.36A4.46,4.46,0,0,1,146,55.55a5.46,5.46,0,0,1,.35,2,4.58,4.58,0,0,1-5,4.93H112.64a3.13,3.13,0,0,0-3.12,3.13v1.69a3.12,3.12,0,0,0,3.12,3.12h28.67a14.58,14.58,0,0,0,2.84-.31,13.94,13.94,0,0,0,3-.94,14.79,14.79,0,0,0,2.83-1.65l.43-.35a3.53,3.53,0,0,0,.25.84,4,4,0,0,0,.87,1.27,3.85,3.85,0,0,0,1.31.83,4.48,4.48,0,0,0,1.65.31h55.07a14.56,14.56,0,0,0,2.83-.31,13.94,13.94,0,0,0,3-.94,14.79,14.79,0,0,0,2.83-1.65,10.38,10.38,0,0,0,2.37-2.44,12.63,12.63,0,0,0,1.64-3.31,13.51,13.51,0,0,0,.62-4.22A13.66,13.66,0,0,0,222.16,53.36ZM150.3,47.88c-.1-.1-.22-.19-.33-.28a14.76,14.76,0,0,0-2.81-1.69,15,15,0,0,0-5.79-1.34h-19a4.57,4.57,0,0,1-5-5A5,5,0,0,1,118.7,36a4.79,4.79,0,0,1,3.66-1.38h24.82a3.13,3.13,0,0,1,3.12,3.13Z"/><path class="cls-1" d="M85.62,28.65H80.08c-.52,0-1.16-1.54-1.54-2.07a13.64,13.64,0,0,0-10.81-5.67H57.53l0-6.54a12.41,12.41,0,0,1,1.73-.05h5.81c4.87,0,7.56.14,12.15,2.47A19.53,19.53,0,0,1,87.33,28.55a1.07,1.07,0,0,1-.41.06Z"/><path class="cls-1" d="M46.57,59.05l-1.46-.95c-8.33-4.71-19.53-.74-22.36,8.1l-.36,1.29c-.34,1.52,0,2.38-1.85,2.52a6.41,6.41,0,0,1-6.78-5,17.85,17.85,0,0,1-.26-4.62V48.22a34.61,34.61,0,0,1,.08-3.81A20,20,0,0,1,32.26,27H64.15c2,0,3.86.7,4.17,2.9a7.94,7.94,0,0,1,0,1.29l0,38.87-15.77,0-.08-1A15,15,0,0,0,46.57,59.05ZM32.27,37.23a2.67,2.67,0,0,0-1.81,1c-1.37,1.83.45,3.31,1.66,4.45l8.4,8.5c1,1.09,2.21,1.89,3.56.74s2.53-2.5,3.78-3.74l5.07-5L54.17,42c1.13-1.18,2.07-2.77.56-4.11-1.84-1.63-3.64-.31-5,1.11l-6.49,6.46a2.55,2.55,0,0,1-.61.47l-7.23-7.09C34.58,38,33.68,37,32.27,37.23Z"/><path class="cls-1" d="M97.63,50H73.28l0-16.65,15,0c.37.23,7.06,12.48,7.82,13.82Z"/><path class="cls-1" d="M98.07,74.73a10.09,10.09,0,0,1-17.2,2.76,9.49,9.49,0,0,1-2-7.41H73.28V54.68c.49,0,1,0,1.44,0H99.94a7,7,0,0,1,1.72.07l.07,0c2.43.63,3.1,2.59,3.1,4.7V70.08a49.32,49.32,0,0,1-6.2,0h-.07A12.93,12.93,0,0,1,98.07,74.73Z"/><path class="cls-1" d="M38,81.12H38c-9.06.83-14.4-10.07-8.74-16.64a10.73,10.73,0,0,1,7.17-3.6h.08A10.15,10.15,0,1,1,38,81.12Z"/></svg>